<?xml version="1.0" encoding="utf-8"?>
<!-- Generator: Adobe Illustrator 16.0.3, SVG Export Plug-In . SVG Version: 6.00 Build 0)  -->
<!DOCTYPE svg PUBLIC "-//W3C//DTD SVG 1.1//EN" "http://www.w3.org/Graphics/SVG/1.1/DTD/svg11.dtd">
<svg version="1.1" id="Layer_1" xmlns="http://www.w3.org/2000/svg" xmlns:xlink="http://www.w3.org/1999/xlink" x="0px" y="0px"
	 width="250px" height="35px" viewBox="0 0 250 35" enable-background="new 0 0 250 35" xml:space="preserve">
<g>
	<path fill="#455560" d="M53.497,10.8c-0.882-2.126-2.111-3.988-3.689-5.584c-1.58-1.595-3.46-2.859-5.646-3.804
		C41.978,0.471,39.595,0,37.016,0c-2.369,0-4.47,0.349-6.307,1.047c-1.837,0.699-3.431,1.587-4.78,2.666
		c-0.895,0.714-1.682,1.467-2.37,2.25c-0.645-1.123-1.483-2.097-2.524-2.909c-0.546-0.425-1.116-0.79-1.708-1.096
		c-0.591-0.303-1.281-0.553-2.072-0.75c-0.787-0.196-1.715-0.342-2.774-0.431c-1.065-0.093-2.34-0.136-3.825-0.136H0v33.727h8.241
		V23.47h0.091l7.786,10.896h9.834l-9.15-11.487c1.113-0.194,2.1-0.514,2.963-0.956c0.199,0.774,0.454,1.542,0.77,2.3
		c0.848,2.052,2.05,3.875,3.598,5.468c1.546,1.599,3.411,2.881,5.598,3.853c2.186,0.974,4.6,1.457,7.238,1.457
		c2.612,0,5.01-0.467,7.194-1.408c2.186-0.942,4.065-2.211,5.646-3.806c1.578-1.596,2.808-3.458,3.689-5.584
		c0.88-2.126,1.319-4.36,1.319-6.704C54.816,15.159,54.377,12.928,53.497,10.8z M16.757,14.22c-0.124,0.547-0.374,1.068-0.755,1.571
		c-0.379,0.502-0.939,0.927-1.684,1.276s-1.751,0.525-3.027,0.525h-3.05v-9.39h3.141c1.669,0,3.015,0.373,4.029,1.116
		c1.017,0.747,1.524,1.893,1.524,3.443C16.936,13.186,16.875,13.673,16.757,14.22z M45.643,20.918
		c-0.381,1.158-0.942,2.219-1.684,3.193c-0.746,0.972-1.688,1.771-2.825,2.392c-1.138,0.622-2.464,0.933-3.981,0.933
		c-1.457,0-2.754-0.277-3.894-0.84c-1.141-0.562-2.109-1.308-2.912-2.232c-0.807-0.931-1.421-1.992-1.845-3.193
		c-0.428-1.2-0.639-2.454-0.639-3.759c0-1.187,0.198-2.362,0.594-3.532c0.395-1.17,0.979-2.225,1.751-3.169
		c0.774-0.942,1.738-1.699,2.89-2.279c1.155-0.576,2.475-0.865,3.963-0.865c1.548,0,2.896,0.312,4.052,0.935
		c1.154,0.623,2.101,1.428,2.847,2.415c0.741,0.988,1.303,2.066,1.684,3.236c0.378,1.171,0.57,2.302,0.57,3.396
		C46.213,18.641,46.021,19.764,45.643,20.918z"/>
	<path fill="#455560" d="M100.952,34.366V23.47h0.091l7.787,10.896h9.835l-9.152-11.487c1.577-0.272,2.906-0.799,3.982-1.571
		c1.076-0.776,1.942-1.67,2.594-2.69c0.654-1.017,1.116-2.089,1.39-3.212c0.271-1.125,0.41-2.174,0.41-3.146
		c0-1.375-0.22-2.729-0.65-4.056h4.514v26.164h8.603V0.64H115.39v4.039c-0.48-0.595-1.024-1.14-1.646-1.625
		c-0.544-0.425-1.113-0.79-1.707-1.096c-0.589-0.303-1.279-0.553-2.071-0.75c-0.789-0.196-1.715-0.342-2.777-0.431
		c-1.062-0.093-2.336-0.136-3.821-0.136H92.712v26.16H81.465v-1.991h7.879v-7.567h-7.879V8.203h9.715V0.64H73.226v19.958
		c-0.028-0.068-0.053-0.134-0.084-0.202c-0.347-0.776-0.896-1.534-1.64-2.279c-0.742-0.747-1.796-1.36-3.163-1.847
		c1.367-0.792,2.358-1.792,2.98-3.006c0.624-1.216,0.935-2.477,0.935-3.785c0-0.972-0.145-1.941-0.433-2.915
		c-0.288-0.974-0.811-1.857-1.57-2.646c-0.607-0.667-1.245-1.222-1.912-1.662c-0.668-0.44-1.427-0.774-2.275-1.003
		c-0.853-0.227-1.807-0.388-2.867-0.477c-1.065-0.093-2.31-0.136-3.735-0.136h-10.38v2.429c0.618,0.479,1.213,0.981,1.761,1.534
		c1.657,1.676,2.948,3.633,3.875,5.862c0.92,2.235,1.384,4.582,1.384,7.034c0,2.459-0.464,4.805-1.384,7.04
		c-0.927,2.23-2.218,4.186-3.875,5.858c-0.548,0.557-1.143,1.057-1.761,1.538v2.433h10.701c1.424,0,2.653-0.033,3.686-0.094
		c1.031-0.062,1.965-0.188,2.801-0.385c0.832-0.198,1.601-0.495,2.3-0.893c0.694-0.392,1.44-0.908,2.23-1.546
		c1.029-0.852,1.804-1.946,2.321-3.282c0.036-0.097,0.069-0.194,0.105-0.291v6.491H100.952z M57.321,8.203h3.05
		c0.334,0,0.714,0.016,1.138,0.046c0.428,0.031,0.821,0.123,1.186,0.272c0.363,0.153,0.676,0.405,0.932,0.753
		c0.259,0.351,0.387,0.844,0.387,1.481c0,0.669-0.135,1.186-0.41,1.552c-0.273,0.363-0.598,0.629-0.976,0.795
		c-0.383,0.167-0.773,0.268-1.185,0.297c-0.411,0.031-0.767,0.044-1.071,0.044h-3.05V8.203z M65.131,25.432
		c-0.35,0.429-0.753,0.745-1.207,0.956c-0.456,0.213-0.928,0.336-1.412,0.365c-0.487,0.031-0.864,0.047-1.138,0.047h-4.053v-6.153
		h4.053c0.332,0,0.744,0.014,1.228,0.047c0.485,0.027,0.956,0.135,1.411,0.316c0.456,0.184,0.845,0.473,1.162,0.869
		c0.321,0.394,0.478,0.957,0.478,1.686C65.652,24.382,65.478,25.007,65.131,25.432z M109.466,14.22
		c-0.122,0.547-0.372,1.068-0.752,1.571c-0.379,0.502-0.94,0.927-1.685,1.276c-0.743,0.349-1.751,0.525-3.027,0.525h-3.05v-9.39
		h3.139c1.672,0,3.015,0.373,4.032,1.116c1.016,0.747,1.523,1.893,1.523,3.443C109.646,13.186,109.586,13.673,109.466,14.22z"/>
	<g>
		<g>
			<path fill="#F05133" d="M187.887,0.64l-5.052,13.536L177.826,0.64h-9.333l10.062,21.463v10.368L165.921,0.64h-6.782
				l-12.825,31.984V8.203h8.207l3.038-7.563H131.82v7.563h5.889v26.164h17.146l1.776-4.878h11.703l1.637,4.878h17.188V22.103
				l9.97-21.463H187.887z M158.999,22.652l3.462-11.532h0.093h0.045l3.46,11.532H158.999z"/>
		</g>
		<g>
			<path fill="#F05133" d="M248.679,10.8c-0.881-2.126-2.11-3.988-3.688-5.584c-1.579-1.595-3.46-2.859-5.645-3.804
				C237.16,0.471,234.776,0,232.197,0c-2.369,0-4.468,0.349-6.309,1.047c-1.834,0.699-3.426,1.587-4.775,2.666
				c-0.318,0.252-0.614,0.512-0.904,0.772c1.258,1.274,2.284,2.648,3.051,4.126c0.593,1.145,1.033,2.219,1.341,3.228
				c0.237-0.39,0.498-0.77,0.79-1.129c0.774-0.942,1.737-1.699,2.89-2.279c1.154-0.576,2.475-0.865,3.962-0.865
				c1.548,0,2.897,0.312,4.055,0.935c1.149,0.623,2.101,1.428,2.844,2.415c0.741,0.988,1.306,2.066,1.683,3.236
				c0.381,1.171,0.569,2.302,0.569,3.396c0,1.094-0.188,2.217-0.569,3.372c-0.377,1.158-0.941,2.219-1.683,3.193
				c-0.743,0.972-1.685,1.771-2.823,2.392c-1.137,0.622-2.465,0.933-3.983,0.933c-1.455,0-2.755-0.277-3.892-0.84
				c-1.139-0.562-2.111-1.308-2.916-2.232c-0.337-0.392-0.629-0.807-0.902-1.241c-0.514,1.679-1.225,3.237-2.161,4.646
				c-0.67,1.012-1.427,1.926-2.247,2.77c1.357,1.203,2.915,2.213,4.697,3.006c2.185,0.974,4.596,1.457,7.236,1.457
				c2.612,0,5.011-0.467,7.197-1.408c2.185-0.942,4.065-2.211,5.645-3.806c1.577-1.596,2.807-3.458,3.688-5.584
				c0.882-2.126,1.321-4.36,1.321-6.704C250,15.159,249.561,12.928,248.679,10.8z"/>
		</g>
		<g>
			<path fill="#F05133" d="M223.699,21.738h-9.013c-0.152,0.307-0.402,0.768-0.751,1.391c-0.349,0.625-0.843,1.252-1.482,1.895
				c-0.637,0.636-1.44,1.196-2.41,1.684c-0.974,0.487-2.126,0.727-3.461,0.727c-1.397,0-2.654-0.277-3.779-0.84
				c-1.123-0.562-2.07-1.315-2.846-2.258c-0.775-0.939-1.375-2.013-1.798-3.214c-0.425-1.201-0.64-2.438-0.64-3.713
				c0-1.187,0.2-2.372,0.594-3.555c0.395-1.186,0.979-2.241,1.753-3.169c0.773-0.925,1.714-1.676,2.822-2.256
				c1.108-0.576,2.391-0.865,3.848-0.865c1.154,0,2.184,0.19,3.096,0.568c0.909,0.38,1.702,0.861,2.37,1.439
				c0.662,0.574,1.22,1.205,1.66,1.892c0.438,0.683,0.78,1.344,1.024,1.98h9.013c-0.241-1.305-0.774-2.749-1.592-4.33
				c-0.819-1.577-1.935-3.037-3.347-4.374c-1.413-1.338-3.134-2.462-5.17-3.375C211.56,0.456,209.226,0,206.582,0
				c-2.763,0-5.238,0.506-7.421,1.526c-0.417,0.196-0.812,0.411-1.205,0.628l-8.696,18.725c0.214,1.074,0.531,2.127,0.955,3.164
				c0.863,2.112,2.071,3.978,3.622,5.605c1.543,1.625,3.411,2.923,5.598,3.895C201.62,34.517,204.03,35,206.677,35
				c2.031,0,3.972-0.316,5.822-0.952c1.853-0.642,3.522-1.537,5.008-2.69c1.487-1.156,2.769-2.545,3.85-4.172
				C222.434,25.562,223.214,23.744,223.699,21.738z"/>
		</g>
	</g>
</g>
</svg>
