<?xml version="1.0" encoding="utf-8"?>
<!-- Generator: Adobe Illustrator 16.0.0, SVG Export Plug-In . SVG Version: 6.00 Build 0)  -->
<!DOCTYPE svg PUBLIC "-//W3C//DTD SVG 1.1//EN" "http://www.w3.org/Graphics/SVG/1.1/DTD/svg11.dtd">
<svg version="1.1" xmlns="http://www.w3.org/2000/svg" xmlns:xlink="http://www.w3.org/1999/xlink" x="0px" y="0px"
	 width="23.982px" height="20px" viewBox="0 0 23.982 20" enable-background="new 0 0 23.982 20" xml:space="preserve">
<g id="Layer_1">
</g>
<g id="logo_art">
</g>
<g id="text">
	<g>
		<path fill="#FFFEFC" d="M13.715,1.327C7.519,0.461,2.278,3.015,1.649,6.849c-0.628,3.834,4.062,7.278,10.258,8.145
			c6.196,0.867,11.494-1.393,12.032-5.241C24.478,5.904,19.911,2.194,13.715,1.327z M16.414,6.04
			c0.134-0.105,1.187,0.715,1.713,1.469c1.01,1.448-0.178,3.451-1.387,3.723c-0.465,0.104-1.265-0.571-1.246-0.798
			c0.02-0.227,1.439-0.569,1.96-1.609C18.181,7.372,16.348,6.093,16.414,6.04z M15.763,11.979c-0.203,0.123-2.226-0.082-3.05-0.343
			c-0.801-0.253-1.896-0.782-2.359-1.289c0.507,0.256,1.313,0.591,2.762,0.737c1.574,0.158,2.031-0.119,2.229-0.048
			C15.545,11.108,15.965,11.855,15.763,11.979z M15.85,6.452c0.109-0.073,0.952,0.634,1.166,0.96
			c0.769,1.172-0.479,2.243-1.54,2.692c-0.235,0.099-0.846-0.368-0.487-0.73c0.599-0.604,1.487-0.759,1.466-1.758
			C16.445,7.167,15.741,6.524,15.85,6.452z M14.537,5.806c0.142-0.047,0.915,0.719,1.022,1.434c0.063,0.425-0.415,1.019-0.843,1.399
			c-0.273,0.243-0.287,0.455-0.287,0.594c-0.084-0.155-0.235-0.275-0.509-0.411c-0.438-0.22-0.827-0.482-0.097-0.847
			C15.535,7.123,14.49,5.821,14.537,5.806z M14.155,6.013c0.269,0.605-0.175,1.134-0.512,1.559
			c-0.337,0.423-0.792,0.946-1.094,0.606c-0.54-0.607-0.031-0.873,0.508-1.438c0.239-0.25,0.383-0.565,0.4-0.785
			c0.031-0.371-0.133-0.656-0.227-0.772C13.47,5.194,14.004,5.675,14.155,6.013z M12.231,4.643c0.237,0.078,0.603,0.422,0.779,0.684
			c0.434,0.638-0.131,1.415-0.788,1.943c-0.287,0.231-0.344,0.547-0.389,0.574c-0.05,0.031-0.41-0.526-0.434-0.597
			c-0.145-0.425,0.371-0.732,0.646-0.929C12.886,5.721,12.308,4.784,12.231,4.643z M11.49,5.028
			c0.178-0.485,0.089-0.719,0.034-0.835c0.193,0.174,0.393,0.504,0.411,0.548c0.216,0.417,0.37,0.809,0.077,1.257
			c-0.203,0.31-0.826,0.607-0.756,1.029c-0.116-0.344-0.48-0.415-0.41-0.975C10.882,5.776,11.374,5.344,11.49,5.028z M10.642,6.247
			c-0.126-0.227-0.299-0.241-0.409-0.51c-0.11-0.27-0.039-0.571,0.158-0.85c0.149-0.211,0.432-0.514,0.35-0.966
			C11.648,5.108,10.584,5.198,10.642,6.247z M9.507,4.607c0.063-0.353,0.586-0.686,0.438-1.233c0.2,0.241,0.382,0.466,0.432,0.623
			C10.538,4.512,9.814,4.94,9.911,5.55C9.769,5.391,9.439,4.99,9.507,4.607z M8.889,3.132C8.96,3.402,9.36,3.649,9.2,4.084
			C9.128,4.28,9.06,4.705,9.236,4.854C8.98,4.857,8.658,4.409,8.629,4.204C8.579,3.848,8.779,3.756,8.889,3.132z M9.017,4.95
			C8.792,4.821,8.499,4.81,8.311,4.81c-0.277,0-0.478-0.053-0.697-0.216C7.441,4.465,7.385,4.333,7.191,4.142
			c0.554,0.275,0.774,0.112,1.224,0.251C8.636,4.461,8.86,4.58,9.017,4.95z M7.448,2.921c0.151-0.094,0.328-0.07,0.389-0.05
			C8.103,2.964,8.279,3.263,8.32,3.413c-0.109-0.095-0.26-0.161-0.334-0.032C7.933,3.478,8.042,3.756,8.271,3.853
			C8.202,3.903,8.05,3.859,7.93,3.791C7.74,3.685,7.396,3.381,7.337,3.267C7.277,3.153,7.336,2.989,7.448,2.921z M6.569,3.473
			c0.111,0.091,0.225,0.144,0.284,0.17c0.312,0.139,0.745,0.017,1.143,0.279c0.156,0.103,0.219,0.22,0.275,0.341
			c-0.266-0.14-0.556-0.196-0.89-0.24C7.181,3.997,6.731,3.81,6.569,3.473z M7.798,4.934c0.37,0.13,0.784,0.097,1.167,0.162
			C9.349,5.119,9.664,5.38,9.941,5.675c-0.618-0.301-1.627-0.006-2.22-0.429c-0.25-0.178-0.486-0.561-0.706-0.782
			C7.291,4.607,7.493,4.827,7.798,4.934z M8.427,5.64c0.642,0.075,1.248-0.066,1.756,0.276c0.106,0.071,0.297,0.273,0.348,0.505
			c-0.513-0.359-1.521-0.157-2.081-0.316C8.026,5.985,7.356,5.513,7.103,5.016C7.554,5.402,8.193,5.612,8.427,5.64z M7.25,5.575
			c0.067-0.029,1.019,0.777,1.746,0.771c0.574-0.005,1.136,0.023,1.476,0.176c0.377,0.168,0.62,0.414,0.766,0.703
			C10.684,6.85,9.373,6.96,8.562,6.678C8.065,6.506,7.181,5.604,7.25,5.575z M7.528,6.215c0.063-0.063,0.656,0.604,1.608,0.807
			c0.748,0.16,1.712,0.124,2.117,0.36c0.116,0.068,0.31,0.276,0.394,0.479c-0.54-0.276-2.168-0.317-2.562-0.479
			C8.151,6.999,7.486,6.256,7.528,6.215z M7.946,7.035c0.045-0.053,1.172,0.793,2.296,0.844c0.658,0.029,1.325,0.09,1.818,0.194
			c0.327,0.069,0.734,0.375,0.979,0.677c-0.346-0.134-0.96-0.206-1.651-0.213c-0.653-0.008-1.369-0.173-1.8-0.319
			C8.64,7.895,7.901,7.087,7.946,7.035z M8.812,8.146c0.095-0.088,0.752,0.691,3.256,0.887c0.569,0.044,1.676-0.005,2.065,0.243
			c0.106,0.068,0.469,0.434,0.379,0.486c-0.359,0.215-2.506-0.033-3.457-0.302C9.671,9.07,8.717,8.232,8.812,8.146z M9.392,9.204
			c0.153-0.119,0.381,0.458,2.511,0.753c0.915,0.127,2.366-0.059,2.679,0.01c0.297,0.065,0.447,0.39,0.418,0.497
			c-0.154,0.565-3.098,0.103-3.77-0.146C9.993,9.859,9.304,9.271,9.392,9.204z M16.364,13.057c-0.666,0.407-2.345,0.2-3.629-0.333
			c-1.449-0.601-2.17-1.316-2.413-1.617c0.332,0.212,1.364,0.659,2.902,1.062c1.018,0.266,2.392,0.298,2.688,0.224
			C16.1,12.345,16.579,12.926,16.364,13.057z M20.428,10.334c-0.276,1.288-2.186,2.321-2.986,2.393
			c-0.802,0.07-1.159-0.903-0.938-1.05c0.222-0.147,0.85-0.337,1.448-0.787c0.388-0.292,0.939-0.666,1.101-1.52
			c0.229-1.219-0.966-2.433-1.276-2.901c0.157-0.046,1.739,1.215,1.914,2.436c0.052,0.365,0.098,0.715,0.076,1.164
			c0.574-2.131-1.096-3.2-1.301-3.637C18.775,6.419,20.925,8.016,20.428,10.334z"/>
		<path fill="#FFFEFC" d="M10.438,16.113c-1.068-0.166-7.453-1.43-9.71-5.914c3.105,7.378,7.186,9.561,11.433,9.788
			c0.54,0.028,6.732,0.437,11.282-6.727C19.282,19.324,12.889,19.441,12,19.146c-0.898-0.299-1.606-1.803-1.489-2.222
			C10.655,16.404,11.656,16.304,10.438,16.113z"/>
		<path fill="#FFFEFC" d="M3.909,1.344c0.088-0.319-0.654-1.675-1.643-1.269c-1.438,0.591-2.226,1.551-2.264,2.19
			c-0.034,0.561,0.24,2.157,0.558,2.771C0.497,3.84,0.466,2.918,0.659,2.339c0.327-0.976,1.428,0.124,1.863-0.255
			C2.873,1.778,3.558,1.488,3.909,1.344z"/>
		<path fill-rule="evenodd" clip-rule="evenodd" fill="#FFFEFC" d="M3.08,11.749C-0.8,8.519,0.365,2.866,5.722,1.098
			c9.706-3.204,17.857,3.335,18.012,5.399C16.245-3.559-5.05,0.918,3.08,11.749z"/>
	</g>
</g>
<g id="Layer_4">
</g>
</svg>
