<?xml version="1.0" encoding="utf-8"?>
<!-- Generator: Adobe Illustrator 16.0.0, SVG Export Plug-In . SVG Version: 6.00 Build 0)  -->
<!DOCTYPE svg PUBLIC "-//W3C//DTD SVG 1.1//EN" "http://www.w3.org/Graphics/SVG/1.1/DTD/svg11.dtd">
<svg version="1.1" xmlns="http://www.w3.org/2000/svg" xmlns:xlink="http://www.w3.org/1999/xlink" x="0px" y="0px"
	 width="400.475px" height="106.453px" viewBox="0 0 400.475 106.453" enable-background="new 0 0 400.475 106.453"
	 xml:space="preserve">
<g id="Layer_1">
</g>
<g id="logo_art">
</g>
<g id="text">
	<g>
		<path fill="#2B2823" d="M204.143,26.907c-19.158-2.679-35.357,5.218-37.302,17.07c-1.943,11.854,12.555,22.504,31.713,25.183
			c19.157,2.68,35.537-4.308,37.201-16.205C237.418,41.061,223.301,29.587,204.143,26.907z M212.487,41.479
			c0.413-0.327,3.67,2.209,5.296,4.54c3.121,4.477-0.551,10.671-4.287,11.508c-1.437,0.321-3.909-1.766-3.852-2.466
			c0.059-0.7,4.45-1.759,6.058-4.975C217.948,45.596,212.283,41.641,212.487,41.479z M210.473,59.838
			c-0.628,0.381-6.88-0.255-9.428-1.059c-2.476-0.781-5.864-2.419-7.296-3.986c1.568,0.791,4.062,1.826,8.541,2.278
			c4.866,0.492,6.277-0.367,6.893-0.146C209.8,57.149,211.099,59.457,210.473,59.838z M210.743,42.751
			c0.337-0.225,2.942,1.96,3.604,2.969c2.376,3.623-1.482,6.936-4.761,8.323c-0.728,0.308-2.617-1.136-1.507-2.258
			c1.849-1.865,4.597-2.346,4.532-5.436C212.585,44.962,210.406,42.977,210.743,42.751z M206.685,40.754
			c0.438-0.146,2.828,2.222,3.16,4.431c0.198,1.313-1.28,3.151-2.604,4.329c-0.844,0.75-0.888,1.406-0.888,1.833
			c-0.261-0.479-0.729-0.849-1.573-1.271c-1.354-0.678-2.557-1.492-0.298-2.617C209.771,44.826,206.541,40.801,206.685,40.754z
			 M205.503,41.395c0.832,1.871-0.538,3.503-1.581,4.816c-1.041,1.311-2.447,2.927-3.381,1.877c-1.671-1.879-0.098-2.699,1.57-4.445
			c0.738-0.773,1.183-1.748,1.238-2.426c0.094-1.147-0.412-2.031-0.703-2.39C203.385,38.864,205.037,40.351,205.503,41.395z
			 M199.558,37.157c0.733,0.241,1.862,1.306,2.409,2.113c1.341,1.974-0.406,4.375-2.439,6.009c-0.887,0.715-1.062,1.689-1.2,1.776
			c-0.153,0.096-1.267-1.628-1.341-1.846c-0.446-1.312,1.146-2.265,1.997-2.87C201.579,40.491,199.791,37.595,199.558,37.157z
			 M197.265,38.351c0.55-1.5,0.273-2.223,0.106-2.582c0.596,0.538,1.212,1.56,1.27,1.693c0.667,1.291,1.146,2.5,0.238,3.888
			c-0.627,0.957-2.555,1.876-2.337,3.182c-0.357-1.062-1.485-1.285-1.267-3.014C195.383,40.664,196.906,39.327,197.265,38.351z
			 M194.643,42.117c-0.392-0.7-0.926-0.744-1.268-1.576c-0.341-0.83-0.119-1.766,0.49-2.627c0.46-0.65,1.335-1.587,1.08-2.985
			C197.753,38.598,194.464,38.877,194.643,42.117z M191.134,37.051c0.193-1.091,1.809-2.12,1.352-3.814
			c0.618,0.746,1.181,1.44,1.334,1.927c0.5,1.591-1.735,2.915-1.438,4.801C191.941,39.472,190.924,38.234,191.134,37.051z
			 M189.221,32.487c0.221,0.837,1.458,1.599,0.964,2.943c-0.222,0.608-0.434,1.922,0.112,2.38c-0.793,0.012-1.79-1.375-1.879-2.009
			C188.264,34.7,188.884,34.415,189.221,32.487z M189.615,38.107c-0.694-0.396-1.599-0.434-2.182-0.434
			c-0.855,0-1.476-0.163-2.155-0.669c-0.533-0.396-0.706-0.806-1.305-1.396c1.713,0.851,2.396,0.349,3.783,0.776
			C188.438,36.596,189.133,36.966,189.615,38.107z M184.767,31.835c0.47-0.289,1.017-0.218,1.202-0.152
			c0.822,0.284,1.367,1.208,1.494,1.675c-0.338-0.293-0.803-0.5-1.03-0.1c-0.168,0.297,0.172,1.157,0.881,1.459
			c-0.214,0.156-0.685,0.021-1.057-0.19c-0.586-0.331-1.65-1.27-1.834-1.621C184.239,32.553,184.422,32.046,184.767,31.835z
			 M182.052,33.541c0.344,0.279,0.691,0.442,0.878,0.525c0.965,0.429,2.304,0.052,3.532,0.863c0.482,0.318,0.677,0.68,0.852,1.054
			c-0.822-0.434-1.718-0.608-2.75-0.742C183.939,35.162,182.552,34.582,182.052,33.541z M185.85,38.059
			c1.142,0.399,2.425,0.299,3.606,0.501c1.187,0.072,2.163,0.877,3.021,1.788c-1.913-0.93-5.032-0.018-6.865-1.322
			c-0.772-0.552-1.503-1.735-2.181-2.422C184.281,37.051,184.906,37.728,185.85,38.059z M187.793,40.241
			c1.985,0.232,3.857-0.206,5.43,0.854c0.328,0.22,0.918,0.845,1.074,1.561c-1.587-1.109-4.705-0.487-6.435-0.977
			c-1.308-0.369-3.378-1.832-4.164-3.369C185.093,39.507,187.072,40.156,187.793,40.241z M184.155,40.041
			c0.208-0.089,3.149,2.402,5.396,2.384c1.775-0.016,3.513,0.072,4.563,0.542c1.164,0.52,1.916,1.281,2.366,2.174
			c-1.712-1.159-5.763-0.817-8.27-1.689C186.676,42.918,183.94,40.133,184.155,40.041z M185.014,42.019
			c0.199-0.196,2.031,1.868,4.974,2.495c2.313,0.493,5.292,0.383,6.546,1.113c0.359,0.21,0.958,0.854,1.219,1.48
			c-1.672-0.853-6.704-0.98-7.922-1.48C186.94,44.444,184.886,42.146,185.014,42.019z M186.309,44.554
			c0.139-0.163,3.622,2.452,7.098,2.608c2.034,0.092,4.096,0.28,5.622,0.604c1.01,0.215,2.271,1.157,3.027,2.092
			c-1.069-0.414-2.969-0.638-5.104-0.66c-2.021-0.022-4.232-0.532-5.565-0.985C188.45,47.212,186.169,44.715,186.309,44.554z
			 M188.981,47.987c0.294-0.271,2.327,2.138,10.067,2.741c1.761,0.136,5.182-0.015,6.385,0.752c0.331,0.211,1.451,1.342,1.174,1.506
			c-1.113,0.663-7.747-0.105-10.69-0.934C191.641,50.848,188.689,48.258,188.981,47.987z M190.777,51.26
			c0.473-0.368,1.177,1.418,7.76,2.329c2.831,0.391,7.318-0.181,8.282,0.03c0.919,0.201,1.385,1.204,1.295,1.535
			c-0.478,1.748-9.579,0.316-11.655-0.451C192.635,53.287,190.506,51.47,190.777,51.26z M212.334,63.172
			c-2.059,1.259-7.249,0.618-11.22-1.029c-4.481-1.858-6.71-4.069-7.461-5.002c1.026,0.657,4.219,2.041,8.975,3.283
			c3.144,0.821,7.392,0.921,8.309,0.692C211.517,60.971,212.998,62.767,212.334,63.172z M224.896,54.753
			c-0.854,3.985-6.756,7.177-9.233,7.397c-2.478,0.219-3.583-2.791-2.897-3.245c0.686-0.455,2.626-1.041,4.478-2.434
			c1.198-0.901,2.905-2.06,3.402-4.697c0.709-3.768-2.987-7.521-3.945-8.972c0.484-0.142,5.378,3.759,5.916,7.53
			c0.161,1.13,0.304,2.212,0.238,3.6c1.772-6.588-3.391-9.895-4.023-11.243C219.787,42.651,226.435,47.585,224.896,54.753z"/>
		<path fill="#2B2823" d="M194.012,72.623c-3.301-0.514-23.042-4.421-30.019-18.287c9.601,22.812,22.216,29.56,35.347,30.263
			c1.669,0.089,20.815,1.351,34.881-20.796c-12.865,18.745-32.632,19.108-35.379,18.194c-2.78-0.925-4.969-5.573-4.606-6.869
			C194.684,73.521,197.777,73.21,194.012,72.623z"/>
		<path fill="#2B2823" d="M173.826,26.96c0.272-0.989-2.023-5.179-5.079-3.923c-4.443,1.825-6.88,4.793-7,6.772
			c-0.104,1.733,0.744,6.668,1.728,8.568c-0.197-3.702-0.296-6.552,0.305-8.343c1.011-3.017,4.412,0.382,5.758-0.789
			C170.621,28.301,172.74,27.404,173.826,26.96z"/>
		<path fill-rule="evenodd" clip-rule="evenodd" fill="#2B2823" d="M171.263,59.13c-11.996-9.989-8.394-27.465,8.166-32.931
			c30.01-9.906,55.212,10.309,55.687,16.693C211.966,11.802,146.128,25.642,171.263,59.13z"/>
		<path fill-rule="evenodd" clip-rule="evenodd" fill="#2B2823" d="M351.171,11.457c-0.02-0.505,0.624-0.85,1.224-0.732
			c0.402,0.078,0.951,0.67,0.863,1.395c-0.221,1.793-3.666,1.135-4.749,0.733c-1.723-0.641-3.292-1.756-4.751-3.082
			c-1.458-1.33-2.309-3.157-3.599-4.333c-1.271-1.159-5.269-2.409-6.044-0.147c1.94,0.253,4.01,0.301,5.253,1.322
			c1.245,1.021,1.948,2.649,3.095,3.817c0.524,0.536,1.104,0.935,1.656,1.322c0.529,0.371,1.289,0.624,1.582,1.395
			c-1.801,0.027-2.312-1.933-3.814-2.349c-0.978-0.272-2.682-0.077-4.102-0.073c-6.327,0.011-270.825-0.192-276.14-0.222
			c-1.185-0.005-2.486-0.235-3.31,0c-1.309,0.375-2.195,2.744-4.03,2.129c0.378-0.612,1.039-0.81,1.512-1.175
			c0.497-0.38,1.064-0.713,1.583-1.173c2.104-1.872,2.802-4.956,6.333-5.213c0.742-0.056,1.666,0.188,2.447-0.222
			c-0.53-1.648-3.212-1.561-4.679-0.807c-2.116,1.086-3.094,3.805-5.035,5.652c-0.745,0.707-1.87,1.524-2.809,1.984
			c-1.232,0.6-2.753,1.29-4.462,1.248c-1.044-0.028-2.342-0.597-2.374-1.396c-0.032-0.812,1.418-1.774,2.014-0.807
			c0.377,0.608-0.548,0.616-0.216,1.101c0.405,0.586,1.641,0.254,2.23-0.073c0.755-0.418,1.493-1.354,1.871-2.202
			c0.698-1.562,0.979-5.323,3.6-4.7c1.283,0.307,1.021,1.904,0.647,2.864c0.625-0.634,1.175-1.477,1.728-2.13
			c1.405-1.66,4.725-4.53,7.699-2.937c0.347,0.186,0.901,0.776,1.225,1.175c0.371,0.459,0.652,1.107,1.151,1.249
			c0.914,0.257,106.489,0.146,117.739,0.146c2.569,0,4.704,0.349,7.34-0.222c1.082-0.232,1.409-0.24,2.879-0.881
			c0.332-0.145,2.534-1.135,2.518-1.395c-0.006-0.112-0.87-0.587-1.151-0.734c-1.433-0.763-2.621-1.137-4.245-1.247
			c1.516,1.136,1.285,3.942-1.295,3.672c-1.241-0.132-2.332-1.33-4.174-1.029c-1.486,0.241-2.778,1.201-4.03,1.543
			c-1.225,0.331-2.905,0.163-3.021-1.028c-0.115-1.17,0.986-1.602,1.942-1.176c0.206,0.522-0.247,0.929,0.287,1.322
			c0.526,0.386,1.812-0.153,2.519-0.515c2.296-1.173,4.041-3.427,7.125-3.524c1.996-0.062,3.869,0.623,5.252,1.321
			c0.498,0.252,1.038,0.92,1.729,0.883c0.496-0.026,1.062-0.631,1.583-0.883c2.324-1.112,5.572-1.646,7.988-0.514
			c1.172,0.551,2.364,1.431,3.454,2.13c1.025,0.657,2.384,1.818,3.957,0.881c0.25-0.37-0.621-0.636-0.143-1.027
			c0.961-0.408,2.205,0.034,2.015,1.32c-0.106,0.723-1.076,1.197-2.015,1.175c-1.948-0.044-3.515-1.802-5.613-1.908
			c-1.864-0.095-2.887,1.159-4.031,1.176c-1.151,0.016-2.189-1-2.158-2.057c0.025-0.812,0.601-1.038,0.937-1.689
			c-2.114,0.193-3.714,0.912-5.11,1.836c2.019,1.354,4.529,2.538,7.556,2.716c3.66,0.212,7.188,0.058,10.507,0.146
			c6.911,0.186,94.006,0.156,112.847-0.146c1.058-3.264,5.487-2.719,7.772-1.248c1.639,1.055,2.341,3.054,3.599,4.039
			c-0.846-1.416,0.284-3.217,1.943-2.645c1.137,0.395,1.269,1.901,1.654,3.085c0.519,1.588,1.671,3.595,2.951,4.037
			c0.614,0.214,1.378,0.464,2.016-0.366C351.587,11.651,351.2,12.181,351.171,11.457z M340.809,9.842
			c0.014-0.55-0.412-0.656-0.576-1.026c-1.071-0.374-2.042-0.142-3.095-0.147c-4.602-0.025-118.765,0.046-121.123,0
			c-4.877-0.096-8.143-0.865-11.369-2.569c-0.664-0.351-1.613-0.738-2.376-1.249c-0.48-0.321-1.636-1.438-2.086-1.468
			c-0.499-0.032-1.695,1.054-2.303,1.468c-0.817,0.558-1.72,1.035-2.377,1.396c-2.357,1.306-5.319,2.201-8.634,2.201
			c-8.238,0-119.09-0.243-125.584-0.219c-1.011,0.003-1.842,0.189-1.943,1.321c8.648,0.083,262.121,0.663,281.25,0.439
			C340.715,9.994,340.779,9.937,340.809,9.842z"/>
		<g>
			<path fill-rule="evenodd" clip-rule="evenodd" fill="#2B2823" d="M148.561,100.257c-35.335,0.069-82.957,0.165-87.141,0.149
				c-1.011-0.003-1.842-0.189-1.942-1.321c3.273-0.032,41.59-0.134,89.083-0.237v-0.801c-47.113,0.039-84.806,0.074-86.781,0.085
				c-1.185,0.005-2.486,0.235-3.309,0c-1.309-0.375-2.196-2.744-4.031-2.129c0.379,0.612,1.039,0.811,1.512,1.175
				c0.497,0.38,1.064,0.713,1.583,1.173c2.104,1.871,2.803,4.956,6.334,5.213c0.742,0.056,1.666-0.188,2.447,0.222
				c-0.53,1.647-3.213,1.561-4.68,0.807c-2.115-1.086-3.093-3.805-5.035-5.652c-0.744-0.707-1.87-1.524-2.809-1.983
				c-1.231-0.601-2.753-1.29-4.462-1.249c-1.043,0.028-2.342,0.597-2.374,1.396c-0.032,0.812,1.418,1.773,2.014,0.807
				c0.378-0.608-0.548-0.616-0.215-1.101c0.405-0.586,1.64-0.254,2.229,0.073c0.755,0.418,1.493,1.354,1.872,2.202
				c0.698,1.562,0.979,5.323,3.6,4.7c1.282-0.307,1.021-1.904,0.646-2.864c0.626,0.634,1.175,1.477,1.729,2.129
				c1.404,1.661,4.724,4.531,7.698,2.938c0.348-0.186,0.902-0.776,1.225-1.176c0.372-0.458,0.652-1.106,1.151-1.248
				c0.594-0.167,45.46-0.179,79.655-0.167V100.257z"/>
			<path fill-rule="evenodd" clip-rule="evenodd" fill="#2B2823" d="M353.393,96.516c-0.222-1.793-3.666-1.135-4.75-0.732
				c-1.723,0.64-3.292,1.756-4.75,3.081c-1.459,1.33-2.309,3.157-3.6,4.332c-1.27,1.161-5.268,2.411-6.043,0.148
				c1.939-0.252,4.01-0.302,5.252-1.322c1.245-1.021,1.949-2.649,3.096-3.817c0.523-0.536,1.104-0.935,1.655-1.322
				c0.53-0.371,1.29-0.624,1.583-1.395c-1.801-0.027-2.313,1.934-3.814,2.349c-0.978,0.272-2.683,0.076-4.103,0.073
				c-2.34-0.004-40.038,0.021-86.771,0.056v0.69c45.214-0.067,82.685-0.092,89.579-0.011c0.122-0.004,0.188,0.052,0.216,0.146
				c0.014,0.551-0.411,0.657-0.576,1.027c-1.071,0.373-2.042,0.143-3.094,0.147c-2.966,0.017-51.55-0.007-86.125-0.014v3.058
				c28.876-0.015,68.91,0.067,80.942,0.261c1.058,3.264,5.487,2.719,7.772,1.248c1.64-1.056,2.342-3.054,3.599-4.039
				c-0.845,1.416,0.284,3.217,1.944,2.645c1.137-0.394,1.268-1.901,1.653-3.086c0.519-1.587,1.671-3.594,2.951-4.036
				c0.614-0.214,1.378-0.464,2.017,0.366c-0.306,0.614-0.692,0.085-0.721,0.809c-0.021,0.505,0.624,0.85,1.224,0.732
				C352.932,97.832,353.48,97.239,353.393,96.516z"/>
		</g>
		<g>
			<rect x="22.037" y="37.381" fill="#4B4844" width="1.9" height="10.639"/>
			<polygon fill="#4B4844" points="1.9,71.956 1.9,37.381 0,37.381 0,73.476 12.159,73.476 12.159,71.956 			"/>
			<polygon fill="#4B4844" points="23.938,71.956 23.938,58.277 14.059,58.277 14.059,59.798 22.037,59.798 22.037,73.476 
				34.196,73.476 34.196,71.956 			"/>
		</g>
		<g>
			<rect x="56.613" y="58.657" fill="#4B4844" width="11.019" height="1.521"/>
			<rect x="56.613" y="46.119" fill="#4B4844" width="11.778" height="1.52"/>
			<polygon fill="#4B4844" points="45.215,71.956 45.215,37.381 43.694,37.381 43.694,73.476 69.531,73.476 69.531,71.956 			"/>
		</g>
		<g>
			<polygon fill="#4B4844" points="95.973,48.562 94.872,51.889 96.704,57.518 98.887,57.518 			"/>
			<polygon fill="#4B4844" points="75.422,71.956 89.115,37.381 87.973,37.381 73.71,73.476 86.593,73.476 87.079,71.956 			"/>
			<polygon fill="#4B4844" points="103.487,71.956 101.596,66.637 90.093,66.637 89.607,68.156 99.884,68.156 101.775,73.476 
				115.017,73.476 114.454,71.956 			"/>
		</g>
		<g>
			<path fill="#4B4844" d="M142.435,59.778c1.534-1.239,2.301-3.27,2.301-6.089c0-2.345-0.767-4.234-2.301-5.543
				c-1.534-1.308-3.579-2.027-6.135-2.027h-2.557v1.52h0.846c2.555,0,4.601,0.684,6.134,1.99c1.534,1.309,2.301,3.147,2.301,5.491
				c0,2.256-0.499,4.004-1.48,5.249C141.858,60.188,142.161,60,142.435,59.778z"/>
			<path fill="#4B4844" d="M144.174,70.963c-2.489,0.716-5.079,0.993-7.771,0.993h-14.438V37.381h-1.9v36.095h14.626
				c2.692,0,5.282-0.313,7.771-1.029c2.486-0.717,4.686-1.794,6.595-3.275c0.468-0.364,0.913-0.784,1.335-1.198
				C148.571,69.313,146.5,70.293,144.174,70.963z"/>
		</g>
		<g>
			<polygon fill="#4B4844" points="245.068,71.956 245.068,37.381 243.549,37.381 243.549,73.476 255.327,73.476 255.327,71.956 			
				"/>
			<rect x="257.227" y="46.119" fill="#4B4844" width="10.639" height="1.52"/>
			<rect x="257.227" y="59.798" fill="#4B4844" width="9.119" height="1.52"/>
		</g>
		<polygon fill="#4B4844" points="277.364,71.956 277.364,37.381 275.464,37.381 275.464,73.476 288.003,73.476 288.003,71.956 		
			"/>
		<g>
			<path fill="#4B4844" d="M324.503,56.418c-0.564,0.382-1.174,0.728-1.839,1.027l0.223,0.354
				C323.483,57.386,324.021,56.925,324.503,56.418z"/>
			<path fill="#4B4844" d="M315.577,50.672c0.424-0.221,0.779-0.527,1.065-0.919c0.288-0.393,0.432-0.912,0.432-1.56
				s-0.119-1.158-0.355-1.533s-0.541-0.656-0.913-0.844s-0.777-0.318-1.218-0.368c-0.438-0.053-0.845-0.089-1.217-0.089h-2.951v1.52
				h1.239c0.372,0,0.778,0,1.218,0.052c0.439,0.05,0.845,0.156,1.217,0.343c0.372,0.188,0.676,0.464,0.913,0.838
				c0.236,0.376,0.355,0.884,0.355,1.53c0,0.482-0.081,0.892-0.239,1.232C315.278,50.815,315.431,50.75,315.577,50.672z"/>
			<polygon fill="#4B4844" points="298.641,71.956 298.641,37.381 297.121,37.381 297.121,73.476 308.899,73.476 308.899,71.956 			
				"/>
			<polygon fill="#4B4844" points="317.873,71.956 310.939,59.037 310.42,59.037 310.42,63.154 316.161,73.476 330.137,73.476 
				329.232,71.956 			"/>
		</g>
		<g>
			<path fill="#4B4844" d="M355.184,45.663c-1.193-0.528-2.267-0.793-3.22-0.793c-0.887,0-1.603,0.128-2.147,0.385
				c-0.519,0.241-0.788,0.633-0.813,1.167c0.37-0.07,0.784-0.107,1.249-0.107c0.953,0,2.026,0.266,3.22,0.794
				c1.194,0.528,2.199,1.303,3.017,2.325l1.575-1.606C357.271,46.886,356.312,46.163,355.184,45.663z"/>
			<path fill="#4B4844" d="M355.285,72.349c-1.771,0.527-3.577,0.791-5.418,0.791c-1.466,0-2.905-0.128-4.32-0.38
				c-1.414-0.256-2.777-0.628-4.088-1.12c-1.314-0.492-2.549-1.067-3.708-1.728c-1.158-0.662-2.197-1.401-3.117-2.214l5.897-6.407
				c-0.066-0.067-0.134-0.134-0.197-0.202l-7.412,8.055c0.92,0.812,1.959,1.551,3.117,2.213c1.159,0.661,2.394,1.236,3.708,1.729
				c1.311,0.492,2.674,0.864,4.089,1.119c1.415,0.253,2.854,0.381,4.319,0.381c1.842,0,3.646-0.264,5.419-0.792
				c1.772-0.527,3.365-1.328,4.779-2.403c0.464-0.352,0.896-0.736,1.301-1.147C358.345,71.167,356.89,71.871,355.285,72.349z"/>
			<path fill="#4B4844" d="M337.905,55.859c0.869,0.82,1.866,1.511,2.991,2.074c1.125,0.564,2.301,1.05,3.527,1.458
				c1.26,0.412,2.309,0.771,3.144,1.077s1.491,0.59,1.97,0.846c0.476,0.255,0.808,0.502,0.996,0.741
				c0.188,0.24,0.28,0.528,0.28,0.871c0,0.053-0.005,0.103-0.009,0.153c0.308-0.061,0.6-0.148,0.878-0.268
				c0.562-0.238,0.843-0.682,0.843-1.331c0-0.343-0.094-0.631-0.281-0.87s-0.52-0.487-0.996-0.742
				c-0.478-0.256-1.134-0.539-1.969-0.846s-1.883-0.665-3.143-1.076c-1.228-0.409-2.404-0.895-3.528-1.459
				c-1.125-0.562-2.122-1.254-2.991-2.074s-1.559-1.801-2.07-2.944c-0.512-1.145-0.767-2.519-0.767-4.123
				c0-2.252,0.46-4.165,1.381-5.735c0.531-0.905,1.151-1.714,1.857-2.433c-0.005,0.004-0.011,0.007-0.017,0.011
				c-1.448,1.007-2.633,2.297-3.552,3.867c-0.922,1.57-1.382,3.483-1.382,5.735c0,1.604,0.256,2.979,0.767,4.123
				C336.348,54.059,337.037,55.039,337.905,55.859z"/>
		</g>
		<g>
			<polygon fill="#4B4844" points="378.811,71.956 378.811,46.119 370.071,46.119 370.071,37.381 368.172,37.381 368.172,47.639 
				377.291,47.639 377.291,73.476 389.449,73.476 389.449,71.956 			"/>
			<rect x="390.969" y="46.119" fill="#4B4844" width="7.219" height="1.52"/>
		</g>
		<g>
			<polygon fill="#2B2823" points="23.646,72.354 23.646,58.604 14.204,58.604 14.204,72.354 1.563,72.354 1.563,35.687 
				14.151,35.687 14.151,47.956 23.596,47.956 23.596,35.687 36.287,35.687 36.287,72.354 			"/>
			<path fill="#FFFFFF" d="M36.05,35.924v36.193H23.884v-13.75h-9.917v13.75H1.801V35.924h12.113v12.27h9.919v-12.27H36.05
				 M36.524,35.449H36.05H23.833h-0.475v0.475v11.795h-8.97V35.924v-0.475h-0.475H1.801H1.326v0.475v36.193v0.475h0.475h12.166
				h0.475v-0.475V58.842h8.968v13.275v0.475h0.475H36.05h0.475v-0.475V35.924V35.449L36.524,35.449z"/>
		</g>
		<g>
			<polygon fill="#2B2823" points="45.065,72.354 45.065,35.687 70.436,35.687 70.436,46.284 56.99,46.284 56.99,48.928 
				69.617,48.928 69.617,58.859 56.99,58.859 56.99,61.758 71.305,61.758 71.305,72.354 			"/>
			<path fill="#FFFFFF" d="M70.198,35.924v10.123H56.753v3.118H69.38v9.457H56.753v3.373h14.314v10.122H45.303V35.924H70.198
				 M70.673,35.449h-0.475H45.303h-0.475v0.475v36.193v0.475h0.475h25.765h0.475v-0.475V61.995v-0.475h-0.475h-13.84v-2.424H69.38
				h0.475v-0.475v-9.457V48.69H69.38H57.228v-2.169h12.971h0.475v-0.475V35.924V35.449L70.673,35.449z"/>
		</g>
		<g>
			<path fill="#2B2823" d="M103.319,72.354l-1.892-5.316H90.264l-1.788,5.316H75.073l14.449-36.668h13.258l14.295,36.668H103.319z
				 M98.56,57.26l-2.589-7.947l-2.634,7.947H98.56z"/>
			<path fill="#FFFFFF" d="M102.618,35.924l14.109,36.193h-13.24l-1.892-5.316H90.093l-1.788,5.316H75.422l14.263-36.193H102.618
				 M93.008,57.497h5.879l-2.914-8.945L93.008,57.497 M102.943,35.449h-0.325H89.685h-0.323l-0.119,0.301L74.98,71.943l-0.256,0.648
				h0.697h12.883h0.342l0.108-0.323l1.679-4.993h10.827l1.779,5.001l0.112,0.315h0.335h13.24h0.694l-0.252-0.647l-14.109-36.193
				L102.943,35.449L102.943,35.449z M93.666,57.022l2.303-6.949l2.264,6.949H93.666L93.666,57.022z"/>
		</g>
		<g>
			<path fill="#2B2823" d="M121.647,72.354V35.687h13.732c2.863,0,5.642,0.286,8.256,0.85c2.626,0.566,4.977,1.559,6.985,2.951
				c2.015,1.394,3.648,3.271,4.855,5.58c1.205,2.308,1.816,5.251,1.816,8.749c0,3.193-0.584,5.998-1.737,8.337
				c-1.152,2.339-2.715,4.284-4.643,5.781c-1.923,1.493-4.169,2.616-6.674,3.338c-2.498,0.718-5.135,1.082-7.837,1.082H121.647z
				 M135.84,61.401c2.793,0,4.962-0.608,6.445-1.808c1.469-1.187,2.213-3.173,2.213-5.904c0-2.26-0.746-4.042-2.218-5.297
				c-1.482-1.264-3.494-1.904-5.98-1.904h-2.472v14.913H135.84z"/>
			<path fill="#FFFFFF" d="M135.38,35.924c2.862,0,5.599,0.282,8.206,0.845c2.605,0.562,4.907,1.533,6.9,2.914
				c1.993,1.379,3.586,3.212,4.779,5.495s1.79,5.162,1.79,8.639c0,3.17-0.57,5.914-1.713,8.231
				c-1.142,2.317-2.667,4.218-4.575,5.699c-1.909,1.482-4.107,2.581-6.594,3.297c-2.489,0.716-5.079,1.073-7.771,1.073h-14.518
				V35.924H135.38 M133.591,61.639h2.249c2.863,0,5.061-0.62,6.595-1.86c1.534-1.239,2.301-3.27,2.301-6.089
				c0-2.345-0.767-4.169-2.301-5.478c-1.534-1.308-3.579-1.961-6.135-1.961h-2.709V61.639 M135.38,35.449h-13.495h-0.475v0.475
				v36.193v0.475h0.475h14.518c2.725,0,5.384-0.367,7.902-1.092c2.535-0.729,4.807-1.866,6.754-3.378
				c1.957-1.519,3.541-3.492,4.71-5.864c1.169-2.371,1.762-5.211,1.762-8.441c0-3.537-0.62-6.518-1.844-8.858
				c-1.226-2.344-2.884-4.25-4.93-5.666c-2.035-1.41-4.415-2.415-7.071-2.987C141.055,35.736,138.26,35.449,135.38,35.449
				L135.38,35.449z M134.065,46.726h2.234c2.428,0,4.389,0.622,5.827,1.848c1.436,1.225,2.134,2.898,2.134,5.116
				c0,2.656-0.715,4.581-2.124,5.72c-1.441,1.164-3.56,1.755-6.297,1.755h-1.774V46.726L134.065,46.726z"/>
		</g>
		<g>
			<polygon fill="#2B2823" points="244.974,72.354 244.974,35.687 269.883,35.687 269.883,46.335 257.358,46.335 257.358,49.644 
				268.4,49.644 268.4,60.086 257.409,60.086 257.409,72.354 			"/>
			<path fill="#FFFFFF" d="M269.646,35.924v10.174h-12.524v3.783h11.042v9.968h-10.991v12.269h-11.961V35.924H269.646
				 M270.12,35.449h-0.475h-24.435h-0.475v0.475v36.193v0.475h0.475h11.961h0.475v-0.475V60.323h10.517h0.475v-0.475v-9.968v-0.475
				h-0.475h-10.567v-2.834h12.05h0.475v-0.475V35.924V35.449L270.12,35.449z"/>
		</g>
		<g>
			<rect x="277.03" y="35.687" fill="#2B2823" width="12.743" height="36.668"/>
			<path fill="#FFFFFF" d="M289.536,35.924v36.193h-12.269V35.924H289.536 M290.011,35.449h-0.475h-12.269h-0.475v0.475v36.193
				v0.475h0.475h12.269h0.475v-0.475V35.924V35.449L290.011,35.449z"/>
		</g>
		<g>
			<path fill="#2B2823" d="M317.73,72.354l-6.912-12.894v12.894h-12.282V35.687h15.829c1.776,0,3.572,0.183,5.338,0.542
				c1.776,0.362,3.387,1.01,4.786,1.925c1.405,0.921,2.558,2.17,3.425,3.713c0.868,1.549,1.309,3.505,1.309,5.815
				c0,2.255-0.562,4.268-1.671,5.981c-1.062,1.649-2.59,2.955-4.544,3.885l9.27,14.807H317.73z M312.864,50.973
				c0.399,0,0.841-0.034,1.311-0.101c0.464-0.064,0.897-0.202,1.291-0.41c0.391-0.203,0.722-0.489,0.985-0.849
				c0.256-0.35,0.386-0.827,0.386-1.42c0-0.598-0.107-1.071-0.319-1.406c-0.212-0.336-0.487-0.592-0.818-0.759
				c-0.349-0.175-0.731-0.287-1.138-0.333c-0.426-0.051-0.826-0.076-1.19-0.076h-2.653v5.354H312.864z"/>
			<path fill="#FFFFFF" d="M314.365,35.924c1.771,0,3.535,0.18,5.29,0.537c1.757,0.358,3.324,0.989,4.704,1.892
				c1.38,0.903,2.496,2.114,3.348,3.63c0.851,1.517,1.278,3.417,1.278,5.699c0,2.216-0.543,4.168-1.633,5.853
				c-1.087,1.688-2.649,2.991-4.688,3.911l9.185,14.672h-13.976l-6.934-12.934h-0.358v12.934h-11.808V35.924H314.365 M310.48,51.21
				h2.384c0.406,0,0.854-0.033,1.344-0.103c0.49-0.068,0.947-0.213,1.369-0.436c0.424-0.221,0.779-0.527,1.065-0.919
				c0.288-0.393,0.432-0.912,0.432-1.56s-0.119-1.158-0.355-1.533s-0.541-0.656-0.913-0.844s-0.777-0.308-1.218-0.357
				c-0.438-0.052-0.845-0.077-1.217-0.077h-2.891V51.21 M314.365,35.449h-15.592h-0.475v0.475v36.193v0.475h0.475h11.808h0.475
				v-0.475V60.406l6.398,11.936l0.135,0.25h0.284h13.976h0.857l-0.455-0.727l-8.901-14.22c1.881-0.94,3.359-2.234,4.402-3.854
				c1.133-1.752,1.708-3.808,1.708-6.109c0-2.352-0.45-4.348-1.339-5.932c-0.886-1.577-2.064-2.854-3.502-3.795
				c-1.425-0.932-3.062-1.591-4.869-1.959C317.969,35.633,316.157,35.449,314.365,35.449L314.365,35.449z M310.955,45.856h2.416
				c0.355,0,0.746,0.025,1.161,0.074c0.382,0.043,0.737,0.147,1.06,0.31c0.297,0.15,0.534,0.37,0.725,0.673
				c0.188,0.298,0.283,0.729,0.283,1.28c0,0.541-0.114,0.972-0.34,1.278c-0.242,0.331-0.545,0.593-0.902,0.779
				c-0.371,0.195-0.779,0.325-1.215,0.386c-0.46,0.065-0.89,0.099-1.278,0.099h-1.909V45.856L310.955,45.856z"/>
		</g>
		<g>
			<path fill="#2B2823" d="M349.867,73.377c-1.465,0-2.933-0.129-4.362-0.384c-1.43-0.259-2.819-0.639-4.129-1.131
				c-1.319-0.494-2.578-1.081-3.742-1.744c-1.163-0.664-2.226-1.419-3.157-2.242l-0.182-0.16l7.75-8.421l0.175,0.188
				c0.83,0.896,1.951,1.703,3.333,2.402c1.376,0.696,2.811,1.049,4.264,1.049c0.647,0,1.244-0.114,1.772-0.341
				c0.478-0.202,0.699-0.556,0.699-1.112c0-0.289-0.075-0.525-0.23-0.724c-0.167-0.213-0.478-0.441-0.922-0.68
				c-0.473-0.253-1.125-0.533-1.938-0.832c-0.833-0.306-1.878-0.663-3.134-1.073c-1.242-0.414-2.439-0.909-3.562-1.473
				c-1.141-0.569-2.166-1.281-3.048-2.113c-0.888-0.838-1.603-1.854-2.124-3.021c-0.522-1.168-0.787-2.588-0.787-4.22
				c0-2.286,0.476-4.256,1.413-5.855c0.935-1.594,2.152-2.92,3.622-3.941c1.465-1.019,3.134-1.764,4.961-2.213
				c1.815-0.446,3.641-0.672,5.425-0.672c2.405,0,4.884,0.47,7.366,1.396c2.488,0.927,4.708,2.284,6.597,4.035l0.18,0.166
				l-7.924,8.084l-0.168-0.209c-0.79-0.987-1.774-1.746-2.927-2.257c-1.158-0.513-2.209-0.772-3.124-0.772
				c-0.848,0-1.536,0.122-2.046,0.362c-0.46,0.214-0.684,0.553-0.684,1.036c0,0.45,0.232,0.782,0.711,1.014
				c0.554,0.269,1.464,0.608,2.705,1.012c1.282,0.404,2.662,0.887,4.101,1.435c1.437,0.547,2.787,1.27,4.017,2.148
				c1.229,0.887,2.257,1.984,3.053,3.264c0.805,1.294,1.212,2.919,1.212,4.829c0,2.209-0.448,4.164-1.332,5.811
				c-0.883,1.643-2.058,3.027-3.491,4.116c-1.429,1.086-3.063,1.908-4.856,2.442C353.567,73.107,351.722,73.377,349.867,73.377z"/>
			<path fill="#FFFFFF" d="M351.964,34.902c2.384,0,4.812,0.459,7.283,1.381c2.472,0.92,4.645,2.249,6.519,3.986l-7.565,7.719
				c-0.817-1.021-1.823-1.797-3.017-2.325s-2.267-0.793-3.22-0.793c-0.887,0-1.603,0.128-2.147,0.385
				c-0.546,0.254-0.819,0.673-0.819,1.251c0,0.546,0.282,0.955,0.845,1.228s1.475,0.614,2.735,1.023
				c1.294,0.408,2.657,0.886,4.089,1.431s2.751,1.253,3.963,2.12c1.208,0.87,2.206,1.936,2.99,3.195
				c0.784,1.263,1.176,2.829,1.176,4.704c0,2.181-0.436,4.081-1.304,5.698c-0.87,1.619-2.012,2.966-3.426,4.039
				c-1.414,1.075-3.007,1.876-4.78,2.404c-1.771,0.527-3.577,0.791-5.418,0.791c-1.466,0-2.905-0.128-4.32-0.38
				c-1.414-0.256-2.777-0.628-4.088-1.12c-1.314-0.492-2.549-1.067-3.708-1.728c-1.158-0.662-2.197-1.401-3.117-2.214l7.412-8.054
				c0.853,0.92,1.984,1.737,3.399,2.453c1.414,0.715,2.87,1.074,4.371,1.074c0.682,0,1.304-0.119,1.866-0.359
				c0.562-0.238,0.843-0.682,0.843-1.331c0-0.343-0.094-0.631-0.281-0.87s-0.52-0.487-0.996-0.742
				c-0.478-0.256-1.134-0.539-1.969-0.846s-1.883-0.665-3.143-1.076c-1.228-0.409-2.404-0.895-3.528-1.459
				c-1.125-0.562-2.122-1.254-2.991-2.074s-1.559-1.801-2.07-2.944c-0.512-1.145-0.767-2.519-0.767-4.123
				c0-2.252,0.46-4.165,1.381-5.735c0.92-1.57,2.104-2.859,3.553-3.866c1.448-1.008,3.075-1.733,4.882-2.178
				C348.401,35.124,350.191,34.902,351.964,34.902 M351.964,34.428c-1.803,0-3.647,0.229-5.481,0.679
				c-1.855,0.456-3.551,1.213-5.04,2.249c-1.497,1.04-2.739,2.392-3.691,4.016c-0.959,1.637-1.445,3.646-1.445,5.976
				c0,1.665,0.271,3.118,0.808,4.317c0.535,1.194,1.268,2.236,2.178,3.096c0.899,0.848,1.943,1.572,3.105,2.153
				c1.131,0.568,2.339,1.067,3.59,1.484c1.262,0.412,2.314,0.772,3.129,1.071c0.803,0.295,1.445,0.57,1.908,0.819
				c0.518,0.276,0.746,0.487,0.847,0.616c0.121,0.154,0.181,0.344,0.181,0.577c0,0.462-0.166,0.729-0.554,0.894
				c-0.5,0.214-1.065,0.322-1.681,0.322c-1.415,0-2.813-0.345-4.156-1.023c-1.356-0.686-2.455-1.478-3.266-2.353l-0.35-0.377
				l-0.349,0.379l-7.412,8.054l-0.328,0.356l0.363,0.321c0.944,0.833,2.02,1.597,3.196,2.27c1.176,0.67,2.446,1.262,3.777,1.76
				c1.322,0.497,2.726,0.882,4.17,1.144c1.443,0.257,2.926,0.387,4.404,0.387c1.878,0,3.746-0.272,5.554-0.811
				c1.82-0.542,3.479-1.377,4.932-2.481c1.461-1.108,2.658-2.52,3.558-4.192c0.902-1.682,1.359-3.674,1.359-5.923
				c0-1.955-0.42-3.622-1.247-4.955c-0.812-1.306-1.861-2.426-3.116-3.33c-1.246-0.892-2.615-1.624-4.071-2.178
				c-1.442-0.549-2.826-1.033-4.115-1.44c-1.228-0.398-2.127-0.734-2.671-0.998c-0.512-0.247-0.577-0.558-0.577-0.8
				c0-0.393,0.168-0.646,0.545-0.82c0.48-0.227,1.135-0.341,1.947-0.341c0.882,0,1.899,0.253,3.027,0.753
				c1.118,0.494,2.072,1.23,2.838,2.188l0.335,0.418l0.375-0.383l7.565-7.719l0.342-0.349l-0.357-0.332
				c-1.912-1.771-4.158-3.146-6.676-4.083C356.904,34.902,354.398,34.428,351.964,34.428L351.964,34.428z"/>
		</g>
		<g>
			<polygon fill="#2B2823" points="378.701,72.354 378.701,46.437 369.807,46.437 369.807,35.687 400.237,35.687 400.237,46.437 
				391.343,46.437 391.343,72.354 			"/>
			<path fill="#FFFFFF" d="M400,35.924v10.275h-8.895v25.918h-12.167V46.199h-8.895V35.924H400 M400.475,35.449H400h-29.956h-0.475
				v0.475v10.275v0.475h0.475h8.42v25.443v0.475h0.475h12.167h0.475v-0.475V46.674H400h0.475v-0.475V35.924V35.449L400.475,35.449z"
				/>
		</g>
		<path d="M161.1,99.263c0-0.852-0.024-1.99-0.046-2.198c-0.041-0.354-0.17-0.412-0.522-0.412h-0.645
			c-0.083,0,0.072-0.193,0.072-0.276v-0.52c0-0.062-0.047-0.104,0.016-0.104c0.146,0,1.161,0.062,2.429,0.062
			c0.831,0,1.95-0.062,2.097-0.062c0.083,0,0.019,0.042,0.019,0.146v0.499c0,0.062,0.084,0.256,0.001,0.256h-0.312
			c-0.811,0-0.83,0.059-0.851,0.37c0,0.167,0.021,1.929,0.021,2.863v1.143c0,0.229-0.042,2.93-0.001,3.345
			c0.603,0,2.43,0.021,2.949-0.041c0.332-0.104,1.402-1.434,1.714-1.953c0.062-0.104,0.14-0.146,0.202-0.125l0.351,0.166
			c0.041,0.021,0.04,0.104,0.02,0.208c-0.021,0.104-0.562,2.223-0.645,2.576c-0.354-0.021-5.007-0.042-6.19-0.042
			c-0.333,0-0.77,0.021-1.164,0.021c-0.395,0.021-0.756,0.042-0.86,0.042c-0.083,0-0.175-0.042-0.175-0.208v-0.437
			c0-0.103,0.162,0.052,0.245,0.052h0.645c0.374,0,0.564-0.274,0.585-0.441c0-0.332,0.046-3.411,0.046-4.2V99.263z"/>
		<path d="M174.729,104.478c-0.727-0.479-1.808-1.933-1.808-3.885c0-0.853,0.146-2.099,1.143-3.262
			c1.247-1.495,2.576-1.766,4.071-1.766c1.019,0,2.348,0.146,3.366,1.121c0.83,0.769,1.62,2.058,1.62,3.927
			c0,0.997-0.208,2.015-0.811,2.866c-0.872,1.267-2.181,1.932-4.341,1.932C177.181,105.411,175.955,105.287,174.729,104.478z
			 M180.691,100.654c0-2.721-1.517-4.258-2.617-4.258c-0.395,0-1.247,0.083-1.725,0.706c-0.623,0.831-1.038,2.077-1.038,3.137
			c0,3.303,1.89,4.341,2.783,4.341C180.442,104.58,180.691,101.776,180.691,100.654z"/>
		<path d="M188.456,97.186c0-0.374-0.049-0.533-0.673-0.533h-0.373c-0.083,0-0.095-0.173-0.095-0.256v-0.54
			c0-0.062,0.026-0.104,0.109-0.104c0.125,0,1.446,0.062,2.465,0.062c0.81,0,2.065-0.062,2.19-0.062
			c0.104,0,0.175,0.042,0.175,0.146v0.499c0,0.062-0.108,0.256-0.192,0.256h-0.29c-0.706,0-0.965,0.142-0.986,0.309
			c-0.041,0.27-0.051,0.91-0.051,1.679v0.831c0,0.686,0.072,2.348,0.072,2.638c0.021,0.582,0.16,1.226,0.492,1.662
			c0.478,0.582,1.233,0.769,1.794,0.769c0.623,0,1.229-0.207,1.646-0.603c0.54-0.498,0.687-1.288,0.666-2.118l-0.041-2.846
			c-0.021-1.019-0.041-1.597-0.082-1.825c-0.041-0.354-0.249-0.495-0.914-0.495h-0.229c-0.083,0,0.016-0.193,0.016-0.297v-0.479
			c0-0.062-0.028-0.125,0.055-0.125c0.104,0,1.232,0.062,1.876,0.062c0.562,0,1.305-0.062,1.43-0.062
			c0.104,0,0.059,0.062,0.059,0.167v0.457c0,0.083,0.098,0.276,0.015,0.276h-0.188c-0.769,0-0.81,0.267-0.872,0.495
			c-0.042,0.166-0.021,1.713-0.021,1.941c0,0.186-0.042,2.476-0.062,2.994c-0.083,1.081-0.374,1.925-1.143,2.547
			c-0.562,0.499-1.413,0.786-2.825,0.786c-0.997,0-1.662-0.086-2.14-0.272c-0.935-0.374-1.43-0.936-1.658-1.767
			c-0.146-0.603-0.225-1.497-0.225-3.263V97.186z"/>
		<path d="M203.653,97.622c0-0.748-0.499-0.97-1.081-0.97h-0.188c-0.083,0-0.251-0.173-0.251-0.256v-0.52
			c0-0.062,0.104-0.125,0.188-0.125c0.042,0,0.303,0.021,0.614,0.021c0.312,0.021,0.742,0.041,1.138,0.041
			c0.332,0,0.776-0.041,1.025-0.041c0.291,0,0.461,0.041,0.544,0.166c0.062,0.083,2.474,2.851,2.89,3.286
			c0.353,0.374,2.162,2.366,2.474,2.746h0.247v-0.631c0-0.873-0.082-1.85-0.103-2.493c0-0.499-0.146-1.638-0.249-1.887
			c-0.104-0.25-0.436-0.309-0.769-0.309h-0.353c-0.104,0-0.048-0.173-0.048-0.276v-0.52c0-0.062-0.007-0.104,0.097-0.104
			c0.146,0,1.015,0.062,1.679,0.062c0.437,0,1.068-0.062,1.214-0.062c0.104,0,0.051,0.042,0.051,0.188v0.437
			c0,0.083,0.124,0.276,0.04,0.276h-0.207c-0.457,0-0.504,0.08-0.546,0.37c-0.146,0.956-0.047,2.198-0.047,3.029v4.861
			c0,0.291-0.14,0.498-0.348,0.498c-0.187,0-0.381-0.124-0.485-0.229c-1.392-1.412-2.756-2.947-4.106-4.422
			c-0.499-0.54-2.278-2.589-2.569-2.969h-0.091v2.447c0,1.247,0.087,3.411,0.129,3.599c0.062,0.478,0.315,0.794,0.627,0.794h0.415
			c0.104,0-0.03-0.135-0.03-0.052v0.52c0,0.083,0.067,0.125-0.037,0.125c-0.146,0-0.942-0.062-1.649-0.062
			c-0.29,0-1.175,0.062-1.341,0.062c-0.042,0-0.013-0.042-0.013-0.166v-0.541c0-0.04-0.046,0.114,0.017,0.114h0.479
			c0.207,0,0.52-0.233,0.582-0.711c0.021-0.25,0.062-1.812,0.062-4.139V97.622z"/>
		<path d="M224.551,102.42c0-0.478-0.628-0.448-0.856-0.448H223.3c-0.083,0-0.269-0.216-0.269-0.278v-0.52
			c0-0.062,0.103-0.104,0.186-0.104c0.125,0,1.185,0.041,2.243,0.041c0.977,0,1.917-0.041,2-0.041s0.131,0.041,0.131,0.125v0.498
			c0,0.062-0.012,0.278-0.074,0.278h-0.291c-0.208,0-0.775-0.071-0.775,0.262v1.703c0,0.188,0.148,0.312,0.148,0.416
			s-0.039,0.165-0.185,0.228c-1.102,0.541-2.201,0.831-3.738,0.831c-1.185,0-2.877-0.312-3.978-1.516
			c-0.831-0.914-1.241-2.036-1.241-3.656c0-1.267,0.543-2.534,1.54-3.407c1.122-0.976,2.411-1.267,4.052-1.267
			c1.08,0,2.058,0.374,2.452,0.665c0.166,0.146,0.249,0.146,0.291,0.083l0.104-0.187c0.041-0.084,0.104-0.146,0.332-0.146
			c0.188,0,0.229,0.083,0.229,0.229c0,0.104,0.27,2.035,0.312,2.409c0,0.104-0.021,0.146-0.187,0.166l-0.395,0.125
			c-0.062,0.021-0.104,0-0.167-0.166c-0.146-0.333-0.498-0.977-0.997-1.476c-0.561-0.478-1.143-0.893-2.118-0.893
			c-0.728,0-1.579,0.331-2.182,1.079c-0.457,0.562-0.83,1.663-0.83,2.597c0,1.601,0.456,2.784,1.038,3.49
			c0.561,0.707,1.226,1.018,1.974,1.018c0.498,0,0.968-0.124,1.279-0.29c0.229-0.125,0.366-0.333,0.366-0.582V102.42z"/>
		<path d="M235.569,99.948c0.38,0,1.246-0.062,1.412-0.104c0.437-0.104,0.623-0.396,0.706-1.038
			c0.021-0.084,0.031-0.104,0.114-0.104l0.452,0.021c0.083,0,0.143,0.042,0.122,0.125c-0.042,0.188-0.043,1.287-0.043,1.475
			c0,0.457,0.062,1.102,0.082,1.371c0,0.083-0.042,0.104-0.104,0.104l-0.436,0.062c-0.062,0.021-0.104-0.021-0.125-0.104
			c-0.208-0.52-0.291-0.831-0.727-0.956c-0.624-0.146-1.074-0.146-1.454-0.146v0.687c0,0.726,0,1.932,0,2.201
			c0,0.914,0.623,0.976,1.412,0.976c0.914,0,1.506,0,2.088-0.519c0.166-0.124,0.888-1.06,1.199-1.454
			c0.083-0.104,0.143-0.125,0.205-0.083l0.394,0.208c0.042,0.021,0.082,0.083,0.062,0.145l-0.748,2.202
			c-0.042,0.104-0.146,0.208-0.229,0.208c-0.146,0-1.247-0.062-5.774-0.062c-0.79,0-1.983,0.062-2.232,0.062
			c-0.104,0-0.176-0.062-0.176-0.166v-0.479c0-0.083,0.144,0.052,0.247,0.052h0.188c0.976,0,1.086-0.259,1.086-1.007v-4.777
			c0-0.665,0.018-1.056-0.065-1.741c-0.062-0.437-0.211-0.454-1.042-0.454h-0.208c-0.062,0-0.205-0.173-0.205-0.276v-0.52
			c0-0.042,0.082-0.104,0.165-0.104c0.312,0,1.485,0.062,2.378,0.062l4.669-0.021c0.208,0,0.485-0.042,0.567-0.042
			c0.042,0,0.088,0.042,0.129,0.291c0.042,0.188,0.625,1.974,0.667,2.119c0.021,0.083,0.021,0.125-0.021,0.146l-0.331,0.146
			c-0.083,0.041-0.146,0.021-0.208-0.062c-0.083-0.083-1.121-1.247-1.495-1.559c-0.229-0.187-0.519-0.27-0.727-0.27l-1.994-0.042
			V99.948z"/>
	</g>
</g>
<g id="Layer_4">
</g>
</svg>
